<?xml version="1.0" encoding="UTF-8"?> <svg xmlns="http://www.w3.org/2000/svg" width="462.23" height="258.64" viewBox="0 0 462.23 258.64"><defs><style>.cls-1{fill:#febd11;}.cls-2{fill:#f6f6e9;}</style></defs><g id="Layer_2" data-name="Layer 2"><g id="Layer_1-2" data-name="Layer 1"><path class="cls-1" d="M76.45,54.1c15.73-2.35,28.68,5.55,30.65,18.7a20.41,20.41,0,0,1-5,16.82c-2.83,3.33-5,4.89-10.75,7.84l0,.27c6.77.79,9.53,1.62,13.63,4.06A24,24,0,0,1,117,119.41c1.51,10.17-2.64,18.55-12.31,24.29a44.87,44.87,0,0,1-14.84,5.54L14.19,160.53l-.27-1.76,11-1.64L11.24,65.63l-11,1.64L0,65.51ZM57,102.17l16.13-2.41L66.82,57.33,50.69,59.74Zm7.31,48.93,16.13-2.4-7-47-16.13,2.41Z"></path><path class="cls-1" d="M228.37,126.75l5.56-.83.26,1.77-56,8.35-.26-1.76,9.35-1.39-15.69-29L144.23,108l-.61,2.44c-1.27,6.29-1.63,8.56-2.26,13.64l14.76,13.46,4.61-.69.26,1.76L124.8,144l-.26-1.76,3.12-.47,2.36-3.68,9.56-13.9,14.83-83.55,24.94-3.73Zm-84-20.58,26.3-3.92L151.49,66.59l-.27,0Z"></path><path class="cls-1" d="M312.68,17.58l7.41,33.82-1.5.22a110.44,110.44,0,0,0-7.93-10.46,45.32,45.32,0,0,0-9-8.49c-9-6.69-19.46-9.7-28.95-8.29A59,59,0,0,0,266.82,26l14.12,94.62c3.72-.14,6.34-.26,7.69-.46,13.69-2,24.25-9.3,30.15-20.85,3.35-6.32,4.81-12.36,5.15-22.11l1.63-.24c-.32,8.08-.94,11.36-2.75,16.9a40.33,40.33,0,0,1-5.18,10.75c-6.38,9.27-16.71,15.24-30,17.23-28.33,4.23-50.77-12.38-55-41s13-53.91,39-57.8c8.27-1.23,14.64-.38,22.8,3.25Z"></path><path class="cls-1" d="M382,8.48l.28,1.9L371.57,12l7.25,48.52,27.6-39.73L393,8.78l-5.15.77-.28-1.9L438.8,0l.28,1.9-3.66.54L409.23,20.07l-6.9,9.49,53.1,63.3,3.39-.51.26,1.76-58,8.66L400.8,101l9.35-1.39-30.8-37.39-.27,0,6.13,41.07,10.31-1.54.26,1.76-60.86,9.09-.27-1.76,11.25-1.68L332.26,17.85l-11,1.63L321,17.59Z"></path><path class="cls-2" d="M62.75,159.78a5.76,5.76,0,0,1,3.92-2.21,6.42,6.42,0,0,1,3.92.6,4.06,4.06,0,0,1,2.19,3.28,5.31,5.31,0,0,1-1,4.14,5.76,5.76,0,0,1-3.92,2.21,6.42,6.42,0,0,1-3.92-.6,4,4,0,0,1-2.19-3.28A5.31,5.31,0,0,1,62.75,159.78Zm10.07,13.84.81,32.11-10.1,1.51-.81-32.11Z"></path><path class="cls-2" d="M112.64,168.82a8.25,8.25,0,0,1,3.29,6.48l.64,24-10.11,1.51-.5-20.21a4.85,4.85,0,0,0-1.35-3.3,4,4,0,0,0-3.46-.7,7.37,7.37,0,0,0-5.46,4.13,16.65,16.65,0,0,0-1.82,8.83l.33,13.08-10.1,1.51-.89-32.1,9.17-1.37.84,4.67A14.91,14.91,0,0,1,98,170a16.48,16.48,0,0,1,7.18-2.76A9.67,9.67,0,0,1,112.64,168.82Z"></path><path class="cls-2" d="M160.15,146.42l.39,14,7.65-1.15.24,8-7.65,1.14.67,24.24-10.11,1.51-.66-24.24-4.91.73-.24-8,4.91-.74-.39-13.95Z"></path><path class="cls-2" d="M205.65,154.93a8.31,8.31,0,0,1,3.29,6.48l.63,24L199.47,187l-.58-20.2q-.33-4.68-4.73-4a7.44,7.44,0,0,0-5.47,4.14,16.71,16.71,0,0,0-1.82,8.83l.34,13.08-10.11,1.51-1.57-58,9.89-1.48.87,30.56a15.12,15.12,0,0,1,4.71-5.28,16.34,16.34,0,0,1,7.15-2.76A9.75,9.75,0,0,1,205.65,154.93Z"></path><path class="cls-2" d="M241.93,170.94l4.7,7.27a25.42,25.42,0,0,1-4.78,2.56,21.78,21.78,0,0,1-5,1.4q-8,1.2-13.24-2.23t-6.44-11.5a18.44,18.44,0,0,1,.78-8.38,16.77,16.77,0,0,1,5.17-7.63,19.38,19.38,0,0,1,10.13-4.24,17.33,17.33,0,0,1,11.5,1.89q5,2.88,7.53,11.94l-22.72,9.36a6.6,6.6,0,0,0,3.28,2,9.81,9.81,0,0,0,3.82.16A12.33,12.33,0,0,0,241.93,170.94ZM228.3,159.48a9.16,9.16,0,0,0-1.16,6.3l0,.21L241,160.1a6.42,6.42,0,0,0-2.77-3.28,6.23,6.23,0,0,0-4.09-.72Q230,156.71,228.3,159.48Z"></path><path class="cls-2" d="M285.85,173.42a13.43,13.43,0,0,1-7.24-3.82l4.05-6a12.05,12.05,0,0,0,5,3,11.17,11.17,0,0,0,4.09.17,3.84,3.84,0,0,0,2.62-1.2,2.59,2.59,0,0,0,.51-2,2.17,2.17,0,0,0-1.4-1.74,22.23,22.23,0,0,0-3.89-1.08l-1.44-.3a11.32,11.32,0,0,1-5.86-2.93,8.89,8.89,0,0,1-2.49-5.05,12,12,0,0,1,.37-5,10,10,0,0,1,3.22-4.87,13.71,13.71,0,0,1,7.19-2.91,25.63,25.63,0,0,1,7-.13,15.4,15.4,0,0,1,6.36,2.33l-3.69,6.38a9.43,9.43,0,0,0-7.11-2.11,4.16,4.16,0,0,0-2.69,1.21,2.66,2.66,0,0,0-.57,2.15,2.26,2.26,0,0,0,1.45,1.78,20.53,20.53,0,0,0,3.84,1.05,14.55,14.55,0,0,1,2.13.42q6.75,1.71,7.56,7.13a11.21,11.21,0,0,1-4.7,11,16.06,16.06,0,0,1-7.19,2.73A22.83,22.83,0,0,1,285.85,173.42Z"></path><path class="cls-2" d="M356.32,131.29l-13.08,34.93-.58.09-10.4-19.25-8.37,22-.58.09-14.9-30.67,9.81-1.47,6.18,12.28,4.17-10.13-1.76-3.43,8.58-1.28,6.27,12.86,4.84-14.52Z"></path><path class="cls-2" d="M362.55,115a5.8,5.8,0,0,1,3.92-2.21,6.5,6.5,0,0,1,3.92.6,4.06,4.06,0,0,1,2.19,3.29,5.28,5.28,0,0,1-1,4.13,5.76,5.76,0,0,1-3.92,2.21,6.49,6.49,0,0,1-3.92-.59,4.08,4.08,0,0,1-2.19-3.29A5.31,5.31,0,0,1,362.55,115Zm10.07,13.84.81,32.11-10.1,1.51-.81-32.11Z"></path><path class="cls-2" d="M412.44,124.06a8.25,8.25,0,0,1,3.29,6.48l.64,24-10.11,1.5-.5-20.21a4.85,4.85,0,0,0-1.35-3.3,4,4,0,0,0-3.46-.7,7.42,7.42,0,0,0-5.47,4.14,16.69,16.69,0,0,0-1.81,8.82L394,157.9l-10.1,1.51-.89-32.1,9.17-1.37.84,4.67a14.87,14.87,0,0,1,4.73-5.35,16.58,16.58,0,0,1,7.19-2.77A9.71,9.71,0,0,1,412.44,124.06Z"></path><path class="cls-2" d="M461.44,115.6l.77,33.82a14.18,14.18,0,0,1-2.06,8.16,17.21,17.21,0,0,1-6.16,5.9,24.88,24.88,0,0,1-8.85,3,25.58,25.58,0,0,1-7.46.15,19.92,19.92,0,0,1-5.22-1.39,41.39,41.39,0,0,1-4.62-2.52l5.75-7.94a19.07,19.07,0,0,0,5,2.5,13.86,13.86,0,0,0,6.2.25,9.07,9.07,0,0,0,5.41-2.76,7.46,7.46,0,0,0,2-5.72l-.1-4.19a12.35,12.35,0,0,1-3.89,4.38,14.45,14.45,0,0,1-6.32,2.38,16.13,16.13,0,0,1-8.19-.77,14,14,0,0,1-6.36-4.84,18.65,18.65,0,0,1-3.36-8.61,17.44,17.44,0,0,1,.92-8.21,18,18,0,0,1,14.88-12,19.49,19.49,0,0,1,7,.07,9.78,9.78,0,0,1,4.72,2.24l.66-2.53ZM451.64,129a6.85,6.85,0,0,0-3.47-3.28,9.72,9.72,0,0,0-5.36-.56,10.21,10.21,0,0,0-5.34,2.27,9,9,0,0,0-2.75,4.06,9.7,9.7,0,0,0-.42,4.38,8.15,8.15,0,0,0,3.19,5.79,9,9,0,0,0,6.71,1.22,9.5,9.5,0,0,0,4.44-1.92,11.47,11.47,0,0,0,3.22-4.1Z"></path><path class="cls-2" d="M124.65,257.93a16.37,16.37,0,0,1-7.45-4.2,14.05,14.05,0,0,1-4-8.29,20.87,20.87,0,0,1,.62-8.73,16.62,16.62,0,0,1,5.05-7.9,19.18,19.18,0,0,1,10.3-4.42,19.75,19.75,0,0,1,8.57.6,16.22,16.22,0,0,1,7.26,4.42,14.28,14.28,0,0,1,3.74,8,21.53,21.53,0,0,1-.51,8.19,17.17,17.17,0,0,1-4.76,8.13c-2.46,2.46-6,4-10.55,4.71A20.8,20.8,0,0,1,124.65,257.93Zm13-11.74a11.9,11.9,0,0,0,1-6.82c-.44-2.94-1.54-4.85-3.29-5.75a8.58,8.58,0,0,0-5.24-1,7.21,7.21,0,0,0-4.36,2.16,8.89,8.89,0,0,0-2.15,4.09,12,12,0,0,0-.22,4.49q.65,4.34,3.29,5.71a8.64,8.64,0,0,0,5.38,1A6.79,6.79,0,0,0,137.61,246.19Z"></path><path class="cls-2" d="M159.44,230.35l-5.33.8-.19-9.12,5.34-.8-.34-11.16a16.43,16.43,0,0,1,3.39-10.94,15.22,15.22,0,0,1,10.17-5.47,17.94,17.94,0,0,1,4.64,0,11.53,11.53,0,0,1,4.34,1.35L177.35,203a3.9,3.9,0,0,0-3.56-1.09,5.13,5.13,0,0,0-3.52,2.07,7.6,7.6,0,0,0-1.2,4.83l.29,10.87,9.53-1.42.18,9.12-9.52,1.42L170.2,252l-10.1,1.51Z"></path><path class="cls-2" d="M221.94,197.86l.39,14,7.64-1.15.24,8-7.65,1.14.67,24.24-10.1,1.51-.67-24.24-4.91.73-.23-8,4.9-.74-.38-13.95Z"></path><path class="cls-2" d="M267.43,206.37a8.28,8.28,0,0,1,3.29,6.48l.64,24-10.1,1.51-.59-20.2c-.22-3.12-1.79-4.45-4.73-4a7.43,7.43,0,0,0-5.46,4.14,16.63,16.63,0,0,0-1.82,8.83l.33,13.08-10.1,1.51-1.58-58,9.89-1.47.87,30.55a15.41,15.41,0,0,1,4.71-5.28,16.38,16.38,0,0,1,7.15-2.76A9.75,9.75,0,0,1,267.43,206.37Z"></path><path class="cls-2" d="M281,187.87a5.74,5.74,0,0,1,3.91-2.21,6.49,6.49,0,0,1,3.92.59,4.06,4.06,0,0,1,2.19,3.29,5.31,5.31,0,0,1-1,4.14,5.74,5.74,0,0,1-3.91,2.21,6.44,6.44,0,0,1-3.93-.6,4,4,0,0,1-2.18-3.29A5.26,5.26,0,0,1,281,187.87ZM291,201.71l.81,32.11-10.1,1.51-.81-32.12Z"></path><path class="cls-2" d="M330.85,196.9a8.25,8.25,0,0,1,3.29,6.48l.64,24-10.1,1.51-.51-20.21a4.86,4.86,0,0,0-1.34-3.31,4.09,4.09,0,0,0-3.46-.69,7.4,7.4,0,0,0-5.47,4.13,16.73,16.73,0,0,0-1.82,8.83l.33,13.08-10.1,1.51-.88-32.1,9.16-1.37.85,4.67a14.71,14.71,0,0,1,4.73-5.36,16.66,16.66,0,0,1,7.18-2.77A9.75,9.75,0,0,1,330.85,196.9Z"></path><path class="cls-2" d="M379.86,188.45l.77,33.81a14.23,14.23,0,0,1-2.06,8.16,17.24,17.24,0,0,1-6.17,5.9,24.57,24.57,0,0,1-8.84,3,25.33,25.33,0,0,1-7.47.16,20.11,20.11,0,0,1-5.22-1.4,43.24,43.24,0,0,1-4.62-2.52l5.75-7.94a19.06,19.06,0,0,0,5,2.5,13.85,13.85,0,0,0,6.2.26,9.15,9.15,0,0,0,5.42-2.76,7.54,7.54,0,0,0,2-5.73l-.11-4.19a12.15,12.15,0,0,1-3.88,4.38,14.37,14.37,0,0,1-6.32,2.38,16,16,0,0,1-8.19-.77,14,14,0,0,1-6.37-4.83,18.64,18.64,0,0,1-3.35-8.61,17.48,17.48,0,0,1,.91-8.22,18,18,0,0,1,14.88-12,19.28,19.28,0,0,1,7,.06,10,10,0,0,1,4.73,2.25l.65-2.53Zm-9.8,13.41a6.91,6.91,0,0,0-3.48-3.28,9.62,9.62,0,0,0-5.36-.57,10.14,10.14,0,0,0-5.34,2.28,9.12,9.12,0,0,0-2.75,4.06,9.66,9.66,0,0,0-.41,4.38,8.15,8.15,0,0,0,3.19,5.79,9,9,0,0,0,6.7,1.21,9.22,9.22,0,0,0,4.44-1.92,11.44,11.44,0,0,0,3.22-4.09Z"></path><path class="cls-2" d="M395.26,217.75a13.33,13.33,0,0,1-7.24-3.82l4-6a12.23,12.23,0,0,0,5,3,11.31,11.31,0,0,0,4.08.16,3.87,3.87,0,0,0,2.63-1.2,2.63,2.63,0,0,0,.51-2,2.17,2.17,0,0,0-1.4-1.74,23.17,23.17,0,0,0-3.89-1.08l-1.45-.3a11.39,11.39,0,0,1-5.86-2.92,8.93,8.93,0,0,1-2.48-5.05,12.19,12.19,0,0,1,.36-5A10,10,0,0,1,392.8,187,13.64,13.64,0,0,1,400,184a25.62,25.62,0,0,1,7-.13,15.4,15.4,0,0,1,6.36,2.33l-3.7,6.38a9.41,9.41,0,0,0-7.1-2.11,4.11,4.11,0,0,0-2.69,1.21,2.67,2.67,0,0,0-.57,2.15,2.22,2.22,0,0,0,1.45,1.78,19.08,19.08,0,0,0,3.84,1,16.69,16.69,0,0,1,2.13.42q6.75,1.73,7.56,7.13a11.62,11.62,0,0,1-.69,6,11.35,11.35,0,0,1-4,5,16,16,0,0,1-7.19,2.74A22.8,22.8,0,0,1,395.26,217.75Z"></path><path class="cls-2" d="M421.68,214.11a4.4,4.4,0,0,1-2.11-3.27,5.14,5.14,0,0,1,1.25-4.21,6.48,6.48,0,0,1,4.12-2.27,5.8,5.8,0,0,1,4.25.8,4.72,4.72,0,0,1,2.05,3.35,5,5,0,0,1-1.07,4.18,6.21,6.21,0,0,1-4,2.11A6.44,6.44,0,0,1,421.68,214.11ZM429,156.92l1,41.59-9,1.35-1-41.6Z"></path></g></g></svg> 