<?xml version="1.0" encoding="UTF-8"?> <svg xmlns="http://www.w3.org/2000/svg" width="1078.76" height="192.95" viewBox="0 0 1078.76 192.95"><defs><style>.cls-1{fill:#fff;}</style></defs><g id="Layer_2" data-name="Layer 2"><g id="Layer_1-2" data-name="Layer 1"><path class="cls-1" d="M206.68,19a34.76,34.76,0,0,1,13,12.57q4.75,7.92,3.37,19.29a60.47,60.47,0,0,1-5,15.67,122.27,122.27,0,0,1-8.9,15.84,177,177,0,0,1-11.05,14.89q-5.91,7.15-11.12,13a255.91,255.91,0,0,1-42.81,36.51,288.74,288.74,0,0,1-48.64,26.51,244.76,244.76,0,0,1-30.45,10.33q-15,4-27.39,6T16.58,192.4a106.57,106.57,0,0,1-11.66.51,7.68,7.68,0,0,1-.92-.17c-.51-.12-1.08-.26-1.69-.43S1.16,192,.7,191.79s-.69-.37-.69-.6.59-.32,2.07-.6l4.91-1c1.79-.34,3.51-.63,5.14-.86s2.56-.34,2.76-.34a366.1,366.1,0,0,0,37.36-9.91,338.78,338.78,0,0,0,39.28-15.32,316.72,316.72,0,0,0,37.74-20.66,207.83,207.83,0,0,0,32.91-25.92q8.59-8.09,16.88-16.53T194.4,83.49q7-8.17,12.58-15.84a78.65,78.65,0,0,0,8.44-14.38A31.29,31.29,0,0,0,218.34,41a13.24,13.24,0,0,0-3.84-9.56q-4.6-4.3-12.89-6.28a97.53,97.53,0,0,0-18.49-2.42,173.84,173.84,0,0,0-21.55.52q-11.35.95-21.94,2.33t-19.56,3l-14.66,2.67Q92.68,33.65,81,36.48T56.78,41.73h-.69c-.26,0-.34-.11-.23-.34a3.61,3.61,0,0,1,1.22-1q11.36-5,21.25-9T99.58,24a247.36,247.36,0,0,1,71.65-11.71,147.83,147.83,0,0,1,18,1.12A48.94,48.94,0,0,1,206.68,19ZM53.56,149.69c-.31-.23-.34-.71-.08-1.46a18.75,18.75,0,0,1,.69-1.81q2.44-4.65,4.37-8c1.28-2.23,2.53-4.39,3.76-6.45s2.48-4.13,3.76-6.2,2.79-4.48,4.53-7.23q11-16.36,22.17-32.55t23.39-31.51q4.3-5.51,8.6-10.67A90.55,90.55,0,0,1,134.26,34c.3-.23.71-.57,1.23-1a16.84,16.84,0,0,1,1.61-1.29,5.83,5.83,0,0,1,1.68-.86,2.23,2.23,0,0,1,1.61.08,2.12,2.12,0,0,1,.54,1.64,7.24,7.24,0,0,1-.46,2c-.25.69-.54,1.35-.84,2a11.55,11.55,0,0,0-.62,1.46,122.75,122.75,0,0,1-6.75,12q-3.67,5.78-8.13,12.31-11.5,16-23.7,31.25T76.26,124.21q-5.22,6-10,12T56.16,148.32a7.17,7.17,0,0,1-1.38,1.2C54.27,149.87,53.86,149.92,53.56,149.69Z"></path><path class="cls-1" d="M219,123a7.13,7.13,0,0,1,1.61-1c.87-.46,1.35-.57,1.46-.34v.25a2.52,2.52,0,0,1-.46.61q-5.69,5.85-11.59,10.93T198.24,144q-2.46,2.42-6.06,6.2l-5.91,6.2c-.61.57-1.3,1.18-2.07,1.81a11.81,11.81,0,0,1-2.46,1.55,4.69,4.69,0,0,1-2.6.43,4.94,4.94,0,0,1-2.69-1.55,4.37,4.37,0,0,1-.84-3.79,19.6,19.6,0,0,1,1.15-4.31,57.38,57.38,0,0,1,4.75-9.72q3.23-5.43,7.29-11.11t8.44-11.11q4.37-5.42,8.21-9.73t6.6-7.06a15.92,15.92,0,0,1,3.68-3.09,1.83,1.83,0,0,1,1.69-.18,1.64,1.64,0,0,1,.53.52,1.07,1.07,0,0,1-.07,1q-2,4.14-4.76,9t-6,10.07L200.46,130q-3.45,5.6-6.67,11.45,1.38-1.2,3.68-3t3.68-2.84l8.75-6.45C212.76,127,215.78,125,219,123Zm17.18-51.82a4.9,4.9,0,0,1,.08,2.84A9.55,9.55,0,0,1,235,76.77a13.16,13.16,0,0,1-1.92,2.33,8.73,8.73,0,0,1-2.14,1.55,7.68,7.68,0,0,1-2.23.77,9.52,9.52,0,0,1-2.53.17,6.16,6.16,0,0,1-2.3-.6,3,3,0,0,1-1.53-1.89,6,6,0,0,1,.61-5.26,10.86,10.86,0,0,1,3.53-3.7,7.83,7.83,0,0,1,2.3-1.12,9.68,9.68,0,0,1,2.84-.43,6.74,6.74,0,0,1,2.68.52A3.44,3.44,0,0,1,236.13,71.18Z"></path><path class="cls-1" d="M310.08,121c.1.12-.11.46-.66,1s-1.17,1.17-1.88,1.84-1.39,1.35-2,2a14.27,14.27,0,0,1-1.48,1.37c-1.2,1.23-2.42,2.39-3.68,3.49s-2.48,2.2-3.68,3.31q-4.25,3.68-8.5,7.62t-8.51,8a35.13,35.13,0,0,0-2.54,2.76,30.08,30.08,0,0,1-2.37,2.57,16.62,16.62,0,0,1-3.76,3.12c-1.42.85-2.84.61-4.26-.74a4,4,0,0,1-1.14-1.74c-.22-.67-.44-1.38-.65-2.11a19.19,19.19,0,0,1,.16-5.6,57.56,57.56,0,0,1,1.31-5.78,44.12,44.12,0,0,1,2-5.61c.76-1.77,1.53-3.45,2.29-5a87.68,87.68,0,0,1,6.14-11.2q3.84-6.06,6.95-10.47a131,131,0,0,0-11.13,8.81q-5.4,4.78-10.79,9.92-.82.74-3.85,3.85t-6.54,6.25a77.42,77.42,0,0,1-6.79,5.41c-2.18,1.53-3.66,2-4.42,1.38s-.73-1.59-.24-3.3a48.84,48.84,0,0,1,2.37-6.25c1.09-2.44,2.37-5.05,3.84-7.8s2.95-5.42,4.42-8,2.81-4.86,4-6.88,2.07-3.46,2.62-4.32a189,189,0,0,0-22.58,21.39,259.56,259.56,0,0,0-20.28,25.8,19.81,19.81,0,0,0-1.23,1.93,4.1,4.1,0,0,1-1.56,1.56,3.62,3.62,0,0,1-3.76-.28,4.4,4.4,0,0,1-2-3.58,28.51,28.51,0,0,1,2.86-12.3q2.86-6.06,6.14-11.75a62.67,62.67,0,0,1,4.09-6.24q2.78-3.85,6.29-8.45t7.45-9.45c2.62-3.24,5.15-6.31,7.6-9.18S245,92.88,247,90.55a70.13,70.13,0,0,1,4.83-5.14c.43-.36.6-.18.49.55a16.08,16.08,0,0,1-.74,2.76c-.38,1.1-.79,2.17-1.22,3.21a12.29,12.29,0,0,1-.82,1.75,102.45,102.45,0,0,1-5.24,9.54q-2.94,4.78-6.13,9.64T232,122.5a106.66,106.66,0,0,0-5.48,9.73q6.21-5.68,12-11.57t11.12-11q5.31-5.15,10.22-9.27a56,56,0,0,1,9.33-6.52,5,5,0,0,1,4.74.18,5.63,5.63,0,0,1,2.29,3.49,5.74,5.74,0,0,1-.65,4.22,133.58,133.58,0,0,1-9.08,12.49q-4.83,5.88-9.24,12.3a132,132,0,0,0,16.11-13.13l15.3-14.59c1.52-1.47,3.16-3,4.9-4.59a16.82,16.82,0,0,1,5.73-3.49,7.31,7.31,0,0,1,2.29-.37,4.29,4.29,0,0,1,2.29.73,5.63,5.63,0,0,1,1.64,7.72,29.45,29.45,0,0,1-2.54,3.76c-.93,1.16-1.83,2.36-2.7,3.58q-1.63,2.39-3.35,4.59t-3.52,4.41q-3.43,4.4-6.63,9.08t-6,9.46a63.15,63.15,0,0,0-6.05,12.67q3.27-2.76,6.71-5.42t6.87-5.41q.65-.56,4-3t7.2-5.24q3.84-2.74,7-4.77T310.08,121Z"></path><path class="cls-1" d="M348,115.46q-1.23,1.55-2.84,3.44c-1.07,1.27-2.12,2.44-3.14,3.53l-1.85,2q-6.14,6-12.58,11.8a103.5,103.5,0,0,1-14.11,10.59,75.29,75.29,0,0,1-7.67,4.39,20.24,20.24,0,0,1-8.29,2.15,9.24,9.24,0,0,1-6.52-2.67,8.13,8.13,0,0,1-2.38-7.14,41.59,41.59,0,0,1,5.68-17.74,122.51,122.51,0,0,1,10.59-15,78.32,78.32,0,0,1,6.13-6.46c2.15-2,4.4-3.93,6.75-5.76a54.77,54.77,0,0,1,7.06-4.91,42.84,42.84,0,0,1,7.67-3.53,12.86,12.86,0,0,1,4-.78,7.46,7.46,0,0,1,4,.95A6.88,6.88,0,0,1,343.81,97a20.35,20.35,0,0,1-2.92,8.7q-1.23,1.89-2.45,3.61t-2.61,3.44a58,58,0,0,1-12.43,11.37,92.17,92.17,0,0,1-9.82,5.42,80.08,80.08,0,0,1-11.2,4.22,34.81,34.81,0,0,0-4.91,11,24.94,24.94,0,0,0,9.82-2.32A70.27,70.27,0,0,0,318,136.55q5.37-3.53,10.59-7.4t9.51-7a23.62,23.62,0,0,0,2-1.54q1.69-1.38,3.61-3t5.14-4C349.07,113.8,348.77,114.43,348,115.46Zm-38.36,7.4a32.51,32.51,0,0,0-2.38,3.28c-.56.92-1.2,2-1.91,3.09a43.88,43.88,0,0,0,10.2-4.56,50.55,50.55,0,0,0,9.2-7.14,52.58,52.58,0,0,0,7.52-9.3A45,45,0,0,0,337.36,97a57.78,57.78,0,0,0-14.73,11.19Q316,115.11,309.59,122.86Z"></path><path class="cls-1" d="M401.65,115.93c.1.23-.1.63-.62,1.21s-1.1,1.17-1.76,1.8-1.33,1.24-2,1.81-1,.92-1.16,1q-1.68,1.56-3.45,3.1c-1.17,1-2.38,2.07-3.6,3.1q-4.92,4.48-10.44,8.7a74.8,74.8,0,0,0-10.43,9.73c-.51.46-1.05.94-1.61,1.46a8.26,8.26,0,0,1-1.84,1.29,4.26,4.26,0,0,1-2,.52,3.13,3.13,0,0,1-2.07-1q-1.83-1.38-1.76-4.48a27,27,0,0,1,1.07-6.63,59.28,59.28,0,0,1,2.38-6.8q1.38-3.27,2.3-5.17a85.19,85.19,0,0,1,5.68-10.16q3.52-5.5,6.29-9.64-5.22,3.62-9.74,6.63a80.12,80.12,0,0,0-9.13,7.15,93.15,93.15,0,0,0-9.51,10.07,120.48,120.48,0,0,0-10.59,15.58c-.41.58-.82,1.18-1.23,1.81a3.15,3.15,0,0,1-1.53,1.29,3.26,3.26,0,0,1-3.45-.26,3.69,3.69,0,0,1-1.77-3.35q-.3-2.76,2.69-8.87a114.55,114.55,0,0,1,8.05-13.6q5.07-7.5,11.58-15.59A149.37,149.37,0,0,1,365.44,92l3.37-3A8.32,8.32,0,0,1,372,87c.2,0,.12.35-.23,1s-.85,1.52-1.46,2.49-1.25,2-1.92,3-1.2,1.89-1.61,2.58q-2.91,4.49-4.76,7.4c-1.22,2-2.4,3.85-3.53,5.69s-2.37,3.81-3.75,5.94-3.25,4.9-5.6,8.35q5.37-4.83,11.43-10.42t12-10.93q6-5.34,11.43-9.65A64.4,64.4,0,0,1,393.82,86a4.47,4.47,0,0,1,4.45.34,5.07,5.07,0,0,1,1.38,7.06,50,50,0,0,1-6.36,8.44q-4.07,4.48-7.29,8.61t-6.22,8.44q-3,4.31-5.6,9-1.53,2.76-3.14,5.68a29.46,29.46,0,0,0-2.53,6.2q3.06-2.74,6.29-5.25c2.15-1.66,4.29-3.3,6.44-4.91l2.07-1.55,3.84-2.84,4.68-3.44c1.63-1.21,3.17-2.27,4.6-3.19s2.63-1.63,3.61-2.15S401.55,115.7,401.65,115.93Z"></path><path class="cls-1" d="M434.48,87.14a6.47,6.47,0,0,1-.61,3.44A13,13,0,0,1,432,93.42c-.77.86-1.59,1.7-2.46,2.5a9.35,9.35,0,0,0-2.07,2.75,46.71,46.71,0,0,0-2.68,6.2c-.77,2.18-1.46,4.37-2.07,6.55q-.93,3.61-1.77,7t-1.61,6.8a41.74,41.74,0,0,1-4.76,11.37,23.49,23.49,0,0,1-8.13,8.26,19.65,19.65,0,0,1-11.5,2.76,12.52,12.52,0,0,1-5.07-1.9,3.27,3.27,0,0,1-.92-.52c-.51-.34-1.05-.68-1.61-1a5.86,5.86,0,0,1-1.38-1.12c-.36-.4-.48-.71-.38-.95s.66-.14,1.68.26a8.41,8.41,0,0,0,1.85.61,13.48,13.48,0,0,0,4.44.68,13.1,13.1,0,0,0,7.83-3.27,24.39,24.39,0,0,0,5.29-6.37,19.78,19.78,0,0,0,2.84-7.92c.41-2.64.79-5.36,1.15-8.18s.69-5.71,1-8.69a96.69,96.69,0,0,1-9.51,8.43q-5.69,4.48-11.13,8.18t-9.43,6q-4,2.33-4.45,1.81c-.21-.35,1.15-1.75,4.06-4.22s6.45-5.51,10.59-9.13,8.39-7.6,12.73-12A74.5,74.5,0,0,0,415,95.4c.92-1.6,1.85-3.18,2.77-4.73s1.94-3.13,3.06-4.74a19.76,19.76,0,0,1,3.76-3.27,8,8,0,0,1,4.53-1.38A4.78,4.78,0,0,1,432.79,83,6.69,6.69,0,0,1,434.48,87.14Z"></path><path class="cls-1" d="M454.12,114.78a6.78,6.78,0,0,1,1.61-1c.87-.46,1.35-.57,1.45-.35v.26a2.24,2.24,0,0,1-.46.61q-5.67,5.85-11.58,10.93T433.4,135.79q-2.44,2.42-6.06,6.2l-5.9,6.2c-.62.57-1.31,1.18-2.07,1.8a11,11,0,0,1-2.46,1.55,4.56,4.56,0,0,1-2.61.43,4.84,4.84,0,0,1-2.68-1.54,4.4,4.4,0,0,1-.85-3.79,20.17,20.17,0,0,1,1.15-4.31,57.57,57.57,0,0,1,4.76-9.73q3.22-5.41,7.29-11.1t8.44-11.11q4.36-5.42,8.21-9.73t6.59-7.06a16.61,16.61,0,0,1,3.68-3.1,1.85,1.85,0,0,1,1.69-.17,1.57,1.57,0,0,1,.54.52,1.07,1.07,0,0,1-.08,1q-2,4.14-4.75,9t-6,10.08q-3.23,5.25-6.67,10.85T429,133.21c.92-.81,2.15-1.81,3.69-3s2.76-2.15,3.68-2.84l8.74-6.45C447.93,118.77,450.94,116.74,454.12,114.78ZM471.3,63a4.9,4.9,0,0,1,.08,2.84,9.49,9.49,0,0,1-1.23,2.76,12.74,12.74,0,0,1-1.92,2.32,8.27,8.27,0,0,1-2.15,1.55,7.23,7.23,0,0,1-2.22.78,9.54,9.54,0,0,1-2.53.17,6.36,6.36,0,0,1-2.3-.6,3.06,3.06,0,0,1-1.54-1.9,6,6,0,0,1,.62-5.25,10.84,10.84,0,0,1,3.52-3.7,7.65,7.65,0,0,1,2.31-1.12,9.66,9.66,0,0,1,2.83-.43,6.79,6.79,0,0,1,2.69.52A3.45,3.45,0,0,1,471.3,63Z"></path><path class="cls-1" d="M502.75,86A6.64,6.64,0,0,1,506,88.28c.82,1.09,1.18,1.58,1.08,1.46l-1.31-.43a14.47,14.47,0,0,0-2.37-.43,13.53,13.53,0,0,0-5.83.61,26.55,26.55,0,0,0-5.84,2.75,53.17,53.17,0,0,0-5.9,4.3q-3,2.5-6.06,5.26c-.92.92-2.61,2.75-5.07,5.51a101.41,101.41,0,0,0-7.44,9.55,82.58,82.58,0,0,0-6.59,11.37A25.23,25.23,0,0,0,457.8,139q4.44-.69,10.43-4.91a85,85,0,0,0,11.66-10,101.42,101.42,0,0,0,10.28-12.22,43.77,43.77,0,0,0,6.29-11.8,13.58,13.58,0,0,0,.77-3.35,10.69,10.69,0,0,0-.31-3.53,8.66,8.66,0,0,1-.31-1.21c.11-.46.54-.2,1.31.78a8.62,8.62,0,0,1,1.61,3.53,24.86,24.86,0,0,1-1.76,16,56.74,56.74,0,0,1-10,15.33,77.37,77.37,0,0,1-14,12.22,48.7,48.7,0,0,1-13.73,6.89,11.44,11.44,0,0,1-7.83,0,8,8,0,0,1-4.29-4.82,14.47,14.47,0,0,1-.77-6.89,35.84,35.84,0,0,1,2.23-8.52,50.28,50.28,0,0,1,4.06-8,90.79,90.79,0,0,1,12.66-15.76A102.39,102.39,0,0,1,474.9,95a56.44,56.44,0,0,1,9.44-6.12,37.84,37.84,0,0,1,9.44-3.36A17.62,17.62,0,0,1,502.75,86Z"></path><path class="cls-1" d="M551.39,117.21c.1.24-.11.64-.62,1.21s-1.1,1.18-1.76,1.81-1.33,1.23-2,1.81-1,.92-1.15,1q-1.68,1.55-3.45,3.1t-3.6,3.1q-4.92,4.47-10.44,8.69a75.41,75.41,0,0,0-10.43,9.73l-1.61,1.46a8.64,8.64,0,0,1-1.84,1.3,4.37,4.37,0,0,1-2,.51,3.09,3.09,0,0,1-2.07-1q-1.83-1.38-1.76-4.48a27.17,27.17,0,0,1,1.07-6.63,59.28,59.28,0,0,1,2.38-6.8q1.38-3.27,2.3-5.16a84.42,84.42,0,0,1,5.68-10.16q3.52-5.52,6.29-9.64-5.22,3.61-9.74,6.62a81.26,81.26,0,0,0-9.13,7.15A94.16,94.16,0,0,0,498,130.9a121.75,121.75,0,0,0-10.58,15.59q-.62.85-1.23,1.8a3.12,3.12,0,0,1-1.53,1.3,3.32,3.32,0,0,1-3.46-.26,3.73,3.73,0,0,1-1.76-3.36q-.3-2.76,2.69-8.87a114,114,0,0,1,8.05-13.6q5.07-7.48,11.58-15.58a148.37,148.37,0,0,1,13.43-14.64l3.37-3a8.32,8.32,0,0,1,3.23-2c.2,0,.12.34-.23,1s-.85,1.52-1.46,2.5l-1.92,3c-.67,1-1.2,1.89-1.61,2.58q-2.91,4.49-4.76,7.41t-3.53,5.68q-1.68,2.76-3.75,5.94t-5.6,8.35q5.35-4.82,11.43-10.42t12-10.93q6-5.34,11.43-9.64a64.55,64.55,0,0,1,9.74-6.55,4.45,4.45,0,0,1,4.45.35,5.06,5.06,0,0,1,1.38,7.06,50.87,50.87,0,0,1-6.36,8.43c-2.72,3-5.14,5.86-7.29,8.61s-4.22,5.57-6.22,8.44-3.86,5.86-5.6,9c-1,1.83-2.07,3.73-3.14,5.68a28.73,28.73,0,0,0-2.53,6.2q3.06-2.76,6.29-5.26c2.15-1.66,4.29-3.29,6.44-4.9l2.07-1.55c1.08-.8,2.35-1.75,3.84-2.84l4.68-3.45c1.63-1.2,3.17-2.26,4.6-3.18s2.63-1.64,3.61-2.16S551.28,117,551.39,117.21Z"></path><path class="cls-1" d="M588.21,87.66a6.51,6.51,0,0,1-.62,3.45A13,13,0,0,1,585.68,94c-.77.86-1.59,1.69-2.46,2.5a9.35,9.35,0,0,0-2.07,2.75,46.15,46.15,0,0,0-2.68,6.2q-1.15,3.27-2.08,6.54-.92,3.61-1.76,7t-1.61,6.8a42,42,0,0,1-4.76,11.36,23.61,23.61,0,0,1-8.13,8.27,19.57,19.57,0,0,1-11.51,2.75,12.38,12.38,0,0,1-5.06-1.89,3.13,3.13,0,0,1-.92-.52c-.51-.34-1-.69-1.61-1a6.4,6.4,0,0,1-1.38-1.12c-.36-.4-.49-.72-.39-.95s.67-.14,1.69.26a8.91,8.91,0,0,0,1.84.6,13.58,13.58,0,0,0,4.45.69,13.22,13.22,0,0,0,7.83-3.27,24.75,24.75,0,0,0,5.29-6.37,19.78,19.78,0,0,0,2.84-7.92q.62-4,1.15-8.18t1-8.7a94.5,94.5,0,0,1-9.52,8.44q-5.67,4.48-11.12,8.18t-9.43,6c-2.66,1.55-4.15,2.15-4.45,1.8s1.15-1.74,4.06-4.21,6.45-5.51,10.59-9.13,8.38-7.6,12.73-12a74.46,74.46,0,0,0,10.51-12.91q1.38-2.42,2.76-4.74c.92-1.55,1.95-3.12,3.07-4.73a19.76,19.76,0,0,1,3.76-3.27,8,8,0,0,1,4.53-1.38,4.78,4.78,0,0,1,3.68,1.72A6.74,6.74,0,0,1,588.21,87.66Z"></path><path class="cls-1" d="M633.62,115a6.78,6.78,0,0,1,1.61-1c.87-.46,1.36-.58,1.46-.35v.26a2.38,2.38,0,0,1-.46.6q-5.68,5.86-11.59,10.94T612.91,136q-2.46,2.41-6.06,6.2l-5.91,6.19c-.61.58-1.3,1.18-2.07,1.81a11.41,11.41,0,0,1-2.46,1.55,4.61,4.61,0,0,1-2.6.43,4.82,4.82,0,0,1-2.69-1.55,4.36,4.36,0,0,1-.84-3.79,19.51,19.51,0,0,1,1.15-4.3,57.44,57.44,0,0,1,4.75-9.73q3.23-5.42,7.29-11.1t8.44-11.11q4.38-5.43,8.21-9.73t6.6-7.06a16.08,16.08,0,0,1,3.68-3.1,1.85,1.85,0,0,1,1.69-.17,1.54,1.54,0,0,1,.53.52c.16.23.13.57-.07,1q-2,4.13-4.76,9t-6,10.08q-3.22,5.25-6.68,10.84t-6.67,11.45q1.38-1.2,3.68-3t3.68-2.84q4.45-3.27,8.75-6.46T633.62,115ZM650.8,63.12a4.9,4.9,0,0,1,.08,2.84,9.49,9.49,0,0,1-1.23,2.76A13.49,13.49,0,0,1,647.74,71a8.44,8.44,0,0,1-2.15,1.55,7.68,7.68,0,0,1-2.23.78,9.52,9.52,0,0,1-2.53.17,6.36,6.36,0,0,1-2.3-.6A3,3,0,0,1,637,71a6,6,0,0,1,.61-5.25,10.77,10.77,0,0,1,3.53-3.7,7.59,7.59,0,0,1,2.3-1.12,9.36,9.36,0,0,1,2.84-.43,6.74,6.74,0,0,1,2.68.52A3.45,3.45,0,0,1,650.8,63.12Z"></path><path class="cls-1" d="M687.63,116.27c.1.23-.11.63-.62,1.2s-1.1,1.18-1.76,1.81-1.33,1.23-2,1.81-1,.92-1.15,1c-1.13,1-2.28,2.07-3.45,3.1s-2.38,2.07-3.61,3.1q-4.9,4.49-10.43,8.69a75.41,75.41,0,0,0-10.43,9.73c-.52.46-1,.95-1.61,1.47a9.25,9.25,0,0,1-1.84,1.29,4.37,4.37,0,0,1-2,.51,3,3,0,0,1-2.07-1q-1.85-1.38-1.76-4.48a26.55,26.55,0,0,1,1.07-6.62,57.58,57.58,0,0,1,2.38-6.81q1.38-3.27,2.3-5.16a84.42,84.42,0,0,1,5.68-10.16q3.52-5.5,6.29-9.64-5.22,3.61-9.75,6.63a82,82,0,0,0-9.13,7.14A95.11,95.11,0,0,0,634.23,130a121.75,121.75,0,0,0-10.58,15.59c-.41.57-.82,1.18-1.23,1.81a3.13,3.13,0,0,1-1.54,1.29,3.31,3.31,0,0,1-3.45-.26,3.73,3.73,0,0,1-1.76-3.36q-.31-2.75,2.68-8.87a115.56,115.56,0,0,1,8.06-13.6Q631.46,115.07,638,107a148.27,148.27,0,0,1,13.43-14.64l3.37-3a8.3,8.3,0,0,1,3.22-2c.21,0,.13.34-.23,1s-.84,1.52-1.45,2.5l-1.92,3c-.67,1-1.21,1.89-1.61,2.58q-2.92,4.49-4.76,7.41c-1.23,1.95-2.4,3.85-3.53,5.68s-2.38,3.82-3.76,5.94-3.25,4.91-5.6,8.35q5.37-4.82,11.43-10.42t12-10.93q6-5.34,11.43-9.64a64.55,64.55,0,0,1,9.74-6.55,4.48,4.48,0,0,1,4.45.35,5.06,5.06,0,0,1,1.38,7.06,50.87,50.87,0,0,1-6.37,8.44q-4.07,4.47-7.28,8.61t-6.22,8.43q-3,4.31-5.6,9c-1,1.83-2.07,3.73-3.14,5.68a28.73,28.73,0,0,0-2.53,6.2q3.06-2.76,6.29-5.25c2.14-1.67,4.29-3.3,6.44-4.91l2.07-1.55q1.61-1.2,3.84-2.84l4.68-3.45q2.45-1.8,4.6-3.18c1.43-.92,2.63-1.64,3.6-2.15S687.52,116,687.63,116.27Z"></path><path class="cls-1" d="M774.16,65q6.29,0,14.26-.08t16.11.43A100.52,100.52,0,0,1,820,67.51a33.76,33.76,0,0,1,12.43,5.25,18.44,18.44,0,0,1,7,9.64q1.92,6-.69,15.33a49.74,49.74,0,0,1-8.06,16.36A100,100,0,0,1,819,127.17a176.7,176.7,0,0,1-15.65,13.09q-8.14,6-16.88,11.36-10.12,6.19-20.25,11.54t-20.56,10q-10.44,4.47-20.79,8.26t-21.1,6.72q-5.37,1.55-11,2.75a40.72,40.72,0,0,1-11.12.86,43.36,43.36,0,0,1-5.52-.69,13.41,13.41,0,0,1-5.07-2.06,10.3,10.3,0,0,1-3.53-4.05,13.71,13.71,0,0,1-1.22-5,18.09,18.09,0,0,1,.53-5.43q.69-2.75,1.62-5.33a56,56,0,0,1,8.43-14.47Q682.25,148,687.62,142c.41-.46,1-1.06,1.77-1.81s1.56-1.49,2.38-2.24,1.53-1.34,2.14-1.8,1-.63,1.23-.52.15.6-.15,1.12a3,3,0,0,0-.46,1q-2,3.27-4.14,6.45t-4.45,6.63c-.41.58-1.13,1.64-2.15,3.19s-2.15,3.35-3.38,5.42-2.45,4.25-3.68,6.54a46,46,0,0,0-2.92,6.55,19.54,19.54,0,0,0-1.15,5.59,3.66,3.66,0,0,0,1.62,3.53,8.1,8.1,0,0,0,4.9,1.55,41.11,41.11,0,0,0,5.38-.34,82.7,82.7,0,0,0,14.34-3.1q8.05-2.41,16.49-5.77t16.8-7.15q8.37-3.78,15.27-7.23,10.42-5.16,20.48-10.93t19.87-12.31q7.83-5.51,15.42-11.54a106,106,0,0,0,14-13.43q1.53-2.07,4.37-5.34a68.92,68.92,0,0,0,5.45-7.23,47.07,47.07,0,0,0,4.37-8.35,16.65,16.65,0,0,0,1.15-8.7q-.61-4-5.29-6a40.52,40.52,0,0,0-12.05-2.84,137.19,137.19,0,0,0-16.72-.61q-9.36.18-19.25.69l-19.57,1q-9.66.51-17.64.34a72.12,72.12,0,0,1-13.58-1.38q-5.6-1.2-7.44-4.13-2.61-4.3,2.3-12.23t18-17.73A152.23,152.23,0,0,1,782,18.18a106.87,106.87,0,0,1,10.51-2.5,50.82,50.82,0,0,1,10.82-.77c1.33.11,2.73.25,4.22.43a21.85,21.85,0,0,1,4.29.94,12.78,12.78,0,0,1,3.84,2.07A10.08,10.08,0,0,1,818.5,22a8.41,8.41,0,0,1,.3,6.29,15.29,15.29,0,0,1-3.45,5.51,32.56,32.56,0,0,1-5.29,4.48c-1.95,1.32-3.58,2.38-4.91,3.18a13.87,13.87,0,0,1-2.23,1,15.16,15.16,0,0,1-1.76.51q.62-.51,3.45-3.27a58.11,58.11,0,0,0,5.45-6.11,20.11,20.11,0,0,0,3.53-6.46q.92-3.11-2.3-4.3a14,14,0,0,0-5.14-1,39.06,39.06,0,0,0-5.14.35c-1.85.23-3.69.51-5.53.86a39.87,39.87,0,0,0-5.37,1.38,93.39,93.39,0,0,0-20.86,8.78q-10,5.69-19.49,12.22-4.9,3.61-9.82,7.75a42.85,42.85,0,0,0-8.44,9.64,34.45,34.45,0,0,0,9.13,1.9q5.61.51,11.66.51c4,0,8,0,11.89-.08S771.39,65,774.16,65Z"></path><path class="cls-1" d="M867.28,92.1a6.73,6.73,0,0,1,3.23,2.32c.81,1.1,1.17,1.58,1.07,1.47-.31-.11-.74-.26-1.3-.43A13.8,13.8,0,0,0,867.9,95a13.53,13.53,0,0,0-5.83.6,26.32,26.32,0,0,0-5.83,2.76,52,52,0,0,0-5.91,4.3q-3,2.5-6.06,5.25-1.38,1.38-5.06,5.51a98.4,98.4,0,0,0-7.44,9.56,81,81,0,0,0-6.6,11.36,25.23,25.23,0,0,0-2.84,10.76q4.45-.67,10.43-4.9a85,85,0,0,0,11.66-10A99,99,0,0,0,854.7,118,43.3,43.3,0,0,0,861,106.22a13.76,13.76,0,0,0,.77-3.36,10.71,10.71,0,0,0-.31-3.53,8.26,8.26,0,0,1-.3-1.2c.1-.46.53-.2,1.3.77a8.56,8.56,0,0,1,1.61,3.53,24.89,24.89,0,0,1-1.76,16,56.89,56.89,0,0,1-10,15.32,77.49,77.49,0,0,1-14,12.23,48.37,48.37,0,0,1-13.73,6.88,11.41,11.41,0,0,1-7.82,0,7.89,7.89,0,0,1-4.3-4.82,14.59,14.59,0,0,1-.77-6.89,36.09,36.09,0,0,1,2.23-8.52,51.57,51.57,0,0,1,4.06-8q2.16-3.44,5.37-7.57a87.42,87.42,0,0,1,7.29-8.18,102.64,102.64,0,0,1,8.75-7.75A56.29,56.29,0,0,1,848.87,95a37.06,37.06,0,0,1,9.44-3.36A17.51,17.51,0,0,1,867.28,92.1Z"></path><path class="cls-1" d="M923.9,112.49c.2.34-.1.89-.92,1.64s-1.33,1.23-1.54,1.46q-6.9,6.54-13.65,12.22-4,3.62-7.9,7.58t-7.75,7.92l-3.68,3.62a14.36,14.36,0,0,1-1.54,1.2,7.67,7.67,0,0,1-1.69.86,3.9,3.9,0,0,1-3.37-.94,5.23,5.23,0,0,1-1.84-3.36,9.76,9.76,0,0,1,.61-4.74,40.5,40.5,0,0,1,2-4.56,81,81,0,0,1,5.06-9.64q2.76-4.48,6.9-10.33-4.29,4-8.28,7.92l-8,7.92q-3.37,3.45-6.75,6.71t-6.9,6.37c-.62.58-1.36,1.21-2.23,1.9a17,17,0,0,1-2.61,1.72,5.66,5.66,0,0,1-2.68.69,4,4,0,0,1-2.61-1,6,6,0,0,1-1.92-4.91,22.55,22.55,0,0,1,1.23-6.63,39.87,39.87,0,0,1,2.84-6.54l2.61-4.83a99.69,99.69,0,0,1,9-13,101.25,101.25,0,0,1,10.51-11.1,65.73,65.73,0,0,1,6.6-5.51,28.26,28.26,0,0,1,7.52-4,3.46,3.46,0,0,0,.69-.17,3.29,3.29,0,0,1,1.07-.18,3.06,3.06,0,0,1,.84.09q.32.09-.15.6a6,6,0,0,1-1.3,1.38,9.58,9.58,0,0,0-1.46,1.38,36,36,0,0,0-3.15,3.27c-1,1.15-2,2.35-3,3.62q-3.23,4.13-6.36,8.86t-6.22,9.73q-3.07,5-6,10t-5.68,9.64a228.87,228.87,0,0,0,24.63-20.66Q899,107,912.08,95.27q1.84-1.72,4.45-4a14.16,14.16,0,0,1,3.69-2.58,2,2,0,0,1,2,.77,2.34,2.34,0,0,1,.46,2.15,8.58,8.58,0,0,1-1.38,2.42c-.82,1.14-1.38,2-1.69,2.41s-1.05,1.55-2.22,3.27-2.61,3.79-4.3,6.2-3.48,5-5.37,7.74-3.68,5.4-5.37,7.93-3.14,4.76-4.37,6.71a38.18,38.18,0,0,0-2.3,4c.1-.11.87-.71,2.3-1.81s3.14-2.43,5.14-4,4.17-3.3,6.52-5.08,4.55-3.39,6.6-4.82a61.19,61.19,0,0,1,5.21-3.36Q923.59,112,923.9,112.49Z"></path><path class="cls-1" d="M974.07,118.33c.1.23-.11.63-.62,1.21s-1.1,1.17-1.76,1.8-1.33,1.24-2,1.81-1.05.92-1.15,1q-1.68,1.56-3.45,3.1t-3.6,3.1q-4.92,4.49-10.44,8.7a74.21,74.21,0,0,0-10.43,9.73c-.51.46-1,.94-1.61,1.46a8.26,8.26,0,0,1-1.84,1.29,4.26,4.26,0,0,1-2,.52,3.13,3.13,0,0,1-2.07-1,5.09,5.09,0,0,1-1.76-4.48,27,27,0,0,1,1.07-6.63,59.28,59.28,0,0,1,2.38-6.8q1.38-3.27,2.3-5.17a85.19,85.19,0,0,1,5.68-10.16q3.53-5.5,6.29-9.64-5.22,3.61-9.74,6.63a80.12,80.12,0,0,0-9.13,7.15A93.15,93.15,0,0,0,920.68,132a120.48,120.48,0,0,0-10.59,15.58c-.41.58-.82,1.18-1.23,1.81a3.15,3.15,0,0,1-1.53,1.29,3.3,3.3,0,0,1-3.46-.26,3.71,3.71,0,0,1-1.76-3.35q-.3-2.76,2.69-8.87a114,114,0,0,1,8.05-13.61q5.07-7.48,11.58-15.58A149.37,149.37,0,0,1,937.86,94.4l3.37-3a8.32,8.32,0,0,1,3.23-2c.2,0,.12.35-.23,1s-.85,1.52-1.46,2.49l-1.92,3c-.67,1-1.2,1.89-1.61,2.58q-2.91,4.47-4.76,7.4T931,111.61q-1.68,2.76-3.75,6t-5.6,8.35Q927,121.08,933,115.49t12-10.94q6-5.33,11.43-9.64a63.65,63.65,0,0,1,9.74-6.54,4.47,4.47,0,0,1,4.45.34,5.07,5.07,0,0,1,1.38,7.06,50.5,50.5,0,0,1-6.36,8.44c-2.72,3-5.14,5.85-7.29,8.61s-4.22,5.57-6.22,8.44-3.86,5.85-5.6,9q-1.53,2.76-3.14,5.68a29.46,29.46,0,0,0-2.53,6.2q3.06-2.75,6.29-5.25c2.15-1.66,4.29-3.3,6.44-4.91l2.07-1.55c1.08-.8,2.35-1.75,3.84-2.84l4.68-3.44c1.63-1.21,3.17-2.27,4.6-3.19s2.63-1.63,3.61-2.15S974,118.1,974.07,118.33Z"></path><path class="cls-1" d="M1078.7.12c.1.12.08.46-.07,1A16.23,16.23,0,0,1,1078,3c-.25.63-.51,1.23-.77,1.8L1076.71,6q-4.45,9.65-9.82,18.77L1056.15,43q-5.84,9.64-11.74,19t-12,18.85q-9.36,14.64-18.8,29.19t-19.71,28.67l3.6-2.85q2.07-1.63,3.3-2.49,4.29-3.45,9.44-6.89t9.74-6.2a6.78,6.78,0,0,1,1.61-1c.87-.46,1.36-.57,1.46-.35a12.28,12.28,0,0,1-2.3,2.59c-1.33,1.26-2.82,2.61-4.45,4s-3.22,2.82-4.76,4.14l-3.07,2.66q-4.14,3.63-8.74,8.27t-8.59,8.61c-1.33,1.26-2.36,2.27-3.07,3a16.55,16.55,0,0,1-3.38,2.5,4.6,4.6,0,0,1-5.67-1.21,5.12,5.12,0,0,1-.7-4.21c.36-1.67.75-3.13,1.16-4.4a62.18,62.18,0,0,1,4.45-9.21q2.91-5.07,5.21-8.87-5.67,5.86-12.89,12.32t-13.65,12c-.62.58-1.36,1.21-2.23,1.9a17.4,17.4,0,0,1-2.6,1.72,5.7,5.7,0,0,1-2.69.69,4,4,0,0,1-2.61-1,5.39,5.39,0,0,1-1.76-4,14.36,14.36,0,0,1,.53-4.47,62.74,62.74,0,0,1,6.14-14.21,97.26,97.26,0,0,1,8.13-11.71,99.72,99.72,0,0,1,8.37-9.12q4-3.89,6.82-6.29c1.94-1.49,4.2-3.07,6.75-4.73a63.17,63.17,0,0,1,8.14-4.48,42.32,42.32,0,0,1,8.66-2.93,17.21,17.21,0,0,1,8.21.09q4.61-7.07,8.52-13.43t8.51-13.26q6.3-9.3,12.51-18.42t12.65-18.08q4.46-6.37,9.13-12.66t9.75-12c.1-.11.4-.48.92-1.12a23,23,0,0,1,1.61-1.8,17.22,17.22,0,0,1,1.61-1.47C1078.14,0,1078.5-.1,1078.7.12ZM962.56,145.45q5.67-4.81,12-9.81t12.58-10.85a141.27,141.27,0,0,0,12.19-12.92,109.75,109.75,0,0,0,11-15.84,16,16,0,0,0-6.82,1.29,36.23,36.23,0,0,0-7,3.79,64.19,64.19,0,0,0-6.29,4.91q-2.92,2.58-4.91,4.48a43.47,43.47,0,0,0-4.45,5.08q-2.93,3.7-6.29,8.52t-6.68,10.42A69.38,69.38,0,0,0,962.56,145.45Z"></path></g></g></svg> 