<?xml version="1.0" encoding="UTF-8"?> <svg xmlns="http://www.w3.org/2000/svg" width="112.5" height="39.59" viewBox="0 0 112.5 39.59"><defs><style>.cls-1{fill:#fff;}.cls-2{fill:#eeb111;}</style></defs><g id="Layer_2" data-name="Layer 2"><g id="Layer_1-2" data-name="Layer 1"><path class="cls-1" d="M53.75,7.25c0-.12.13-1,.13-1.35s0-1.1,0-1.3l.19.05a4.66,4.66,0,0,0,.06.72,1.39,1.39,0,0,0,1.27.9,1.08,1.08,0,0,0,1.16-1c0-.66-.51-1-1.05-1.33-.8-.53-1.44-1-1.44-1.91A1.51,1.51,0,0,1,55.79.54,4.66,4.66,0,0,1,56.9.69c.05-.2.1-.44.15-.67l.18,0A17.35,17.35,0,0,0,57,2.25l-.19-.08c0-.28,0-.48,0-.63A1.23,1.23,0,0,0,55.72.8a.88.88,0,0,0-1,.82c0,.54.56.83,1.18,1.22s1.37.89,1.37,1.92a1.82,1.82,0,0,1-2,1.79,2.83,2.83,0,0,1-1.14-.21c0,.16-.12.55-.18.86Z"></path><path class="cls-1" d="M61.8,6.28a6.62,6.62,0,0,0,.83-.12c-.15-.42-.73-2.16-.86-2.4-.29,0-1.59.06-1.89.1a19.14,19.14,0,0,0-.58,2.3,5.26,5.26,0,0,0,.71.12l0,.17c-.25,0-1,0-1.24,0s-.76,0-.95,0l0-.17c.24,0,.49-.07.71-.12.29-.51,1.93-4.93,2-5.24A6.29,6.29,0,0,0,60,.81V.64L61,.67l1.41,0,0,.17a5.7,5.7,0,0,0-.62.11c.1.36.55,1.65.86,2.51a27.73,27.73,0,0,0,1.12,2.73c.23,0,.47.08.72.12l0,.17c-.1,0-.93,0-1.36,0-.24,0-1.17,0-1.39,0Zm-.92-5.22h0c-.25.73-.79,2.15-.87,2.42l1.72,0C61.53,3,61,1.51,60.88,1.06Z"></path><path class="cls-1" d="M65,7.25c0-.12.13-1,.13-1.35s0-1.1,0-1.3l.19.05a6.35,6.35,0,0,0,.06.72,1.4,1.4,0,0,0,1.27.9,1.09,1.09,0,0,0,1.17-1c0-.66-.52-1-1-1.33-.81-.53-1.45-1-1.45-1.91A1.51,1.51,0,0,1,67,.54a4.58,4.58,0,0,1,1.11.15c.06-.2.1-.44.15-.67l.19,0a15.86,15.86,0,0,0-.2,2.25l-.19-.08a5,5,0,0,0,0-.63A1.21,1.21,0,0,0,67,.8c-.71,0-1,.45-1,.82,0,.54.55.83,1.18,1.22s1.37.89,1.37,1.92a1.82,1.82,0,0,1-2,1.79,2.81,2.81,0,0,1-1.13-.21c0,.16-.13.55-.18.86Z"></path><path class="cls-1" d="M70.75,3.06c0-.77,0-1.91,0-2.13-.2,0-.68-.1-.88-.12l0-.17,1.44,0,1.35,0,0,.17c-.1,0-.65.08-.83.12,0,.26,0,1.53,0,2.2v.26A29.35,29.35,0,0,0,74.32.93c-.19-.05-.43-.09-.61-.12l0-.17,1.25,0,.89,0,0,.17a4.31,4.31,0,0,0-.54.1A27,27,0,0,0,73,2.69c.32.51,2.68,3.48,3.11,3.88l-.28.08A28.52,28.52,0,0,1,72.2,3.33c-.15.12-.41.33-.51.43V4c0,.72,0,1.87,0,2.17a5.5,5.5,0,0,0,.93.16l0,.17c-.16,0-1,0-1.47,0s-1.17,0-1.4,0l0-.17a8.66,8.66,0,0,0,.87-.12c0-.36,0-1.46,0-2.63Z"></path><path class="cls-1" d="M79.77,6.28a6.9,6.9,0,0,0,.83-.12c-.15-.42-.73-2.16-.86-2.4-.29,0-1.6.06-1.9.1a19.52,19.52,0,0,0-.57,2.3,4.86,4.86,0,0,0,.7.12l0,.17c-.25,0-1,0-1.24,0s-.76,0-1,0l0-.17c.23,0,.48-.07.7-.12.3-.51,1.93-4.93,2-5.24a6.29,6.29,0,0,0-.65-.11V.64L79,.67l1.4,0,0,.17a5.48,5.48,0,0,0-.63.11c.1.36.55,1.65.86,2.51a27.73,27.73,0,0,0,1.12,2.73c.24,0,.47.08.72.12l0,.17c-.1,0-.93,0-1.37,0-.23,0-1.16,0-1.38,0Zm-.93-5.22h0c-.25.73-.78,2.15-.87,2.42l1.73,0C79.5,3,79,1.51,78.84,1.06Z"></path><path class="cls-1" d="M84.91,3c0-.61,0-1.83,0-2a4.35,4.35,0,0,0-2.12.34,4.31,4.31,0,0,0-.16.77l-.19.05c0-.39.13-1.42.12-2.07l.19,0c0,.1,0,.36,0,.53.13,0,1.54.08,2.65.08S88,.7,88.14.68s.08-.35.11-.51l.21,0c0,.19-.24,1.87-.26,2.12l-.19,0c0-.33,0-.67,0-.85A6,6,0,0,0,85.88,1c0,.22,0,1.42,0,2V3.4c0,.72,0,2.11,0,2.76.16,0,.9.1,1.06.12l0,.17c-.19,0-1.15,0-1.61,0s-1.35,0-1.59,0l0-.17,1-.12c0-.64,0-2,0-2.76Z"></path><path class="cls-1" d="M89.92,5.63a2.61,2.61,0,0,1-.79-2c0-1.62,1.34-3.1,3.6-3.1A3.57,3.57,0,0,1,95,1.2a2.56,2.56,0,0,1,1,2,3.29,3.29,0,0,1-3.54,3.31A3.35,3.35,0,0,1,89.92,5.63ZM95,3.84a2.79,2.79,0,0,0-2.57-3A2.3,2.3,0,0,0,90.08,3.3a2.89,2.89,0,0,0,2.78,2.91A2.27,2.27,0,0,0,95,3.84Z"></path><path class="cls-1" d="M98.1,5.63a2.61,2.61,0,0,1-.79-2c0-1.62,1.34-3.1,3.61-3.1a3.53,3.53,0,0,1,2.27.66,2.56,2.56,0,0,1,1,2,3.28,3.28,0,0,1-3.54,3.31A3.35,3.35,0,0,1,98.1,5.63Zm5.08-1.79a2.79,2.79,0,0,0-2.57-3A2.3,2.3,0,0,0,98.26,3.3,2.89,2.89,0,0,0,101,6.21,2.27,2.27,0,0,0,103.18,3.84Z"></path><path class="cls-1" d="M105.29.67c.46,0,1.23,0,1.87-.05.18.27,1.83,2.34,2,2.49s1.52,1.81,1.78,2a32.81,32.81,0,0,0-.17-4.22,7.84,7.84,0,0,0-.83-.12l0-.17,1.22,0,1,0,0,.17-.62.12a13.56,13.56,0,0,0-.16,1.74c0,.38-.09,3.83-.13,4.16-.25-.23-2.52-2.88-2.71-3.1s-1.68-2-2-2.33c0,.16.08,4.47.18,4.76.13,0,.74.1.9.12l0,.17c-.15,0-1,0-1.21,0s-.88,0-1.12,0l0-.17a6.38,6.38,0,0,0,.68-.12c.14-.34.23-4.95.23-5.22a8.11,8.11,0,0,0-.91-.1Z"></path><path class="cls-2" d="M58.72,18.52v5.11a7.4,7.4,0,0,1-1,4.46c-.55.95-1.41,1.94-3.8,3.75l-.46-.15a8.39,8.39,0,0,0,2.34-4c.33-1.15.53-3.89.53-8.84V17.37c0-.84,0-4.57-.2-5.72-.53-.09-2.28-.27-2.92-.31l-.08-.46c.53,0,3.13.09,4.35.09s3.07-.05,3.82-.09l-.07.46c-.37,0-1.59.22-2.36.31-.09.68-.11,5.21-.11,5.7Z"></path><path class="cls-2" d="M72.4,26.06a18.73,18.73,0,0,0,2.23-.31c-.4-1.15-2-5.84-2.32-6.48-.78,0-4.29.16-5.11.29a52.73,52.73,0,0,0-1.54,6.19,13.7,13.7,0,0,0,1.9.31l.09.46c-.69,0-2.7-.09-3.34-.09s-2.06.05-2.56.09l.06-.46a18.37,18.37,0,0,0,1.9-.31c.8-1.4,5.2-13.28,5.5-14.12a15.4,15.4,0,0,0-1.74-.29l0-.46c.66,0,2.49.09,2.87.09.93,0,3.14-.05,3.78-.09l-.07.46a14,14,0,0,0-1.68.29c.27,1,1.48,4.44,2.32,6.76a76.43,76.43,0,0,0,3,7.36c.64.13,1.28.22,1.94.31l.07.46c-.27,0-2.5-.09-3.67-.09-.64,0-3.14.05-3.73.09ZM69.9,12h0c-.69,2-2.13,5.79-2.35,6.52l4.64.09C71.67,17.15,70.27,13.22,69.9,12Z"></path><path class="cls-2" d="M94.71,21.42c-.11.64-1.13,6.43-1.21,7.55L93,28.82c0-.42.11-1.7.11-2.12a61.84,61.84,0,0,0-6.67-.27c-1,0-4.07.07-6,.13,1.11-1.17,10-13.41,10.68-14.69-1.51,0-7.6.33-8.27,1-.22.58-.66,2.19-.79,2.56l-.51.07a49.46,49.46,0,0,0,.71-6.61l.5.11c0,.6.05,1.73.07,2.06.46.09,5,.2,5.59.2s4.95-.05,6.32-.11c-1.22,1.52-9.39,12.75-10.56,14.54,2.74.11,8-.27,9.15-1.22a17.25,17.25,0,0,0,.92-2.87Z"></path><path class="cls-2" d="M111.68,21.42c-.11.64-1.13,6.43-1.21,7.55l-.51-.15c0-.42.11-1.7.11-2.12a61.93,61.93,0,0,0-6.68-.27c-1,0-4.06.07-6,.13,1.11-1.17,10-13.41,10.67-14.69-1.5,0-7.6.33-8.26,1-.22.58-.66,2.19-.8,2.56l-.5.07a49.14,49.14,0,0,0,.7-6.61l.51.11c0,.6,0,1.73.07,2.06.46.09,5,.2,5.59.2s5-.05,6.32-.11c-1.22,1.52-9.39,12.75-10.56,14.54,2.74.11,8-.27,9.14-1.22a16.37,16.37,0,0,0,.93-2.87Z"></path><path class="cls-1" d="M53.93,38a2.6,2.6,0,0,1-.78-2c0-1.63,1.33-3.1,3.6-3.1a3.47,3.47,0,0,1,2.27.66,2.55,2.55,0,0,1,1,2,3.29,3.29,0,0,1-3.55,3.31A3.36,3.36,0,0,1,53.93,38ZM59,36.18a2.77,2.77,0,0,0-2.56-3,2.29,2.29,0,0,0-2.36,2.44,2.9,2.9,0,0,0,2.78,2.92A2.27,2.27,0,0,0,59,36.18Z"></path><path class="cls-1" d="M62,35.3c0-.3,0-1.87,0-2s-.7-.08-.88-.1l0-.17h1.77a7.54,7.54,0,0,1,2.32.23,1,1,0,0,1,.7.94,2.15,2.15,0,0,1-1.16,1.55A23.29,23.29,0,0,0,67,39l-.36.05a21.94,21.94,0,0,1-2.89-3l-.79,0v.21c0,.54,0,1.8,0,2.18a7.19,7.19,0,0,0,.86.11l0,.17-1.41,0-1.39,0,0-.17c.12,0,.64-.06.87-.11,0-.24,0-1.85,0-2.71Zm.92.57a2.85,2.85,0,0,0,1-.16,1.38,1.38,0,0,0,.94-1.32c0-.53-.48-1.17-1.9-1.17,0,.34,0,1.81,0,2.39Z"></path><path class="cls-1" d="M73.16,34.8a4.8,4.8,0,0,0,0-.67,2.24,2.24,0,0,0-2-1,2.32,2.32,0,0,0-2.44,2.37,3,3,0,0,0,3,3,4,4,0,0,0,2-.44l-.12.35a4.39,4.39,0,0,1-2.31.49,4.63,4.63,0,0,1-1.86-.36A2.82,2.82,0,0,1,67.71,36,2.89,2.89,0,0,1,69,33.57a4,4,0,0,1,2.45-.68,7.35,7.35,0,0,1,1.71.21,7,7,0,0,0,.17-.73l.19,0a21.18,21.18,0,0,0-.18,2.53Z"></path><path class="cls-1" d="M75.65,35.35c0-.27,0-1.81,0-2.08-.15,0-.66-.1-.86-.11l0-.18c.13,0,.91,0,1.44,0s1.21,0,1.34,0l0,.18a6.46,6.46,0,0,0-.8.11c0,.22-.07,1.19-.07,1.9v.4c.21,0,3.08,0,3.41,0v-.37c0-.64,0-1.69,0-1.9a6.65,6.65,0,0,0-.81-.11l0-.18c.14,0,.9,0,1.41,0s1.22,0,1.37,0l-.05.18c-.16,0-.6.08-.84.11,0,.16,0,1.86,0,2.08v.57c0,.95,0,2.31.07,2.59.16,0,.66.1.83.11l0,.17-1.38,0-1.4,0,0-.17.81-.11c0-.28,0-1.32,0-2.19v-.48c-.39,0-3.29.16-3.41.19v.29c0,.83,0,1.88.07,2.19a6.61,6.61,0,0,0,.8.11l0,.17-1.34,0-1.44,0,0-.17c.19,0,.7-.08.86-.11,0-.39,0-1.77,0-2.39Z"></path><path class="cls-1" d="M84,35.57c0-.74,0-2-.06-2.3-.15,0-.65-.09-.85-.11l0-.18.74,0h.72c.26,0,2.19,0,2.41-.06,0-.1,0-.24.07-.39l.19,0c0,.17-.15,1.45-.17,1.7l-.18-.06s0-.43,0-.59-1.41-.34-1.85-.34c0,.11,0,1.7,0,2.18v.16a7.86,7.86,0,0,0,1.7-.13,2.49,2.49,0,0,0,.08-.35l.17,0c0,.15-.17,1.28-.21,1.54l-.16-.07c0-.17,0-.38,0-.55a4.69,4.69,0,0,0-1.6-.18V36c0,.5,0,2.29,0,2.52a4.64,4.64,0,0,0,2-.28c.09-.28.13-.54.18-.72l.19-.05c0,.24-.24,1.49-.27,1.9l-.17,0c0-.21,0-.36,0-.5-.24,0-2.06-.07-2.58-.07l-1.24,0,0-.17c.13,0,.62-.06.84-.11,0-.15.06-1.66.06-2.56Z"></path><path class="cls-1" d="M88.83,39.59c0-.11.13-1,.13-1.35S89,37.14,89,37l.19,0c0,.1,0,.57.06.72a1.41,1.41,0,0,0,1.27.89,1.08,1.08,0,0,0,1.17-1c0-.66-.52-1-1-1.34-.81-.52-1.45-1-1.45-1.91a1.5,1.5,0,0,1,1.69-1.44A4.7,4.7,0,0,1,92,33c.06-.19.1-.44.15-.66l.19,0a16,16,0,0,0-.2,2.25l-.19-.08a4.67,4.67,0,0,0,0-.62,1.2,1.2,0,0,0-1.09-.74c-.71,0-1,.45-1,.82,0,.53.55.82,1.18,1.21s1.37.89,1.37,1.92a1.82,1.82,0,0,1-2,1.79,3,3,0,0,1-1.13-.2c0,.15-.13.55-.18.85Z"></path><path class="cls-1" d="M95.84,35.37c0-.61,0-1.82,0-2a4.29,4.29,0,0,0-2.12.35,5.3,5.3,0,0,0-.17.77l-.18.05c0-.4.13-1.42.12-2.07l.19,0c0,.11,0,.36,0,.53s1.54.09,2.65.09S99,33.05,99.08,33s.08-.35.11-.5l.21,0c-.05.19-.24,1.87-.26,2.12L99,34.55c0-.33,0-.66,0-.84a5.75,5.75,0,0,0-2.14-.35c0,.22,0,1.42,0,2v.37c0,.72,0,2.11,0,2.77l1.06.11,0,.17-1.61,0-1.59,0,0-.17,1-.11c0-.64,0-2,0-2.77Z"></path><path class="cls-1" d="M101.11,35.3c0-.3,0-1.87,0-2s-.7-.08-.88-.1l0-.17h1.77a7.54,7.54,0,0,1,2.32.23,1,1,0,0,1,.7.94,2.16,2.16,0,0,1-1.15,1.55A23,23,0,0,0,106.07,39l-.36.05a21.94,21.94,0,0,1-2.89-3l-.79,0v.21c0,.54,0,1.8,0,2.18a7.11,7.11,0,0,0,.87.11l0,.17-1.41,0-1.39,0,0-.17c.12,0,.64-.06.87-.11,0-.24,0-1.85,0-2.71Zm.92.57a2.85,2.85,0,0,0,1-.16,1.38,1.38,0,0,0,.94-1.32c0-.53-.48-1.17-1.9-1.17,0,.34,0,1.81,0,2.39Z"></path><path class="cls-1" d="M109.8,38.62a7.22,7.22,0,0,0,.83-.11c-.15-.43-.74-2.17-.87-2.41-.28,0-1.59.06-1.89.11a18.64,18.64,0,0,0-.58,2.3,5.27,5.27,0,0,0,.71.11l0,.17-1.24,0-1,0,0-.17a5.37,5.37,0,0,0,.7-.11c.3-.52,1.93-4.93,2-5.25a4.49,4.49,0,0,0-.64-.1V33c.24,0,.93,0,1.06,0,.35,0,1.17,0,1.41,0l0,.18a4,4,0,0,0-.62.1c.1.37.55,1.65.86,2.51a27.85,27.85,0,0,0,1.12,2.74c.24.05.47.08.72.11l0,.17-1.36,0-1.39,0Zm-.93-5.22h0c-.25.73-.79,2.15-.87,2.42l1.73,0C109.52,35.31,109,33.85,108.87,33.4Z"></path><path class="cls-2" d="M14.63,34.3c7-2.77,8.87-9,10-12.67l.17-.55-.4-.15c-1.49,3.58-2.51,5.12-7.32,7-2.23.88-5.26,1.2-6.67-.2a4,4,0,0,1-1-3.53c.78-5.51,8.71-14,17.69-18.95,6.1-3.35,11.94-4.08,17.38-2.17l.18-.38C38.18-1.09,27,.17,17,5.86,7.19,11.39.53,19.78,0,27.25,0,28.68,1,33,4.56,34.43A12.79,12.79,0,0,0,14.63,34.3Z"></path><path class="cls-1" d="M45.41,5.51a12.85,12.85,0,0,0-10.08.14c-7,2.77-8.86,9-10,12.67l-.17.55.4.14c1.49-3.58,2.51-5.11,7.32-7,2.22-.89,5.26-1.2,6.67.2a3.93,3.93,0,0,1,1,3.52c-.78,5.52-8.72,14-17.69,19C14.92,39,8.67,38.12,4.82,36.6l-.2.37c6.44,4.32,17.84,3.22,28.38-2.73C42.71,28.75,49.36,20.39,50,13l0-.32C50,11.2,48.89,6.89,45.41,5.51Z"></path></g></g></svg> 